<?xml version="1.0" standalone="no"?>
<!DOCTYPE svg PUBLIC "-//W3C//DTD SVG 20010904//EN"
 "http://www.w3.org/TR/2001/REC-SVG-20010904/DTD/svg10.dtd">
<svg version="1.0" xmlns="http://www.w3.org/2000/svg"
 width="568.000000pt" height="568.000000pt" viewBox="0 0 568.000000 568.000000"
 preserveAspectRatio="xMidYMid meet">
<metadata>
Created by potrace 1.14, written by Peter Selinger 2001-2017
</metadata>
<g transform="translate(0.000000,568.000000) scale(0.100000,-0.100000)"
fill="#000000" stroke="none">
<path d="M866 4808 c-180 -181 -225 -236 -205 -249 11 -8 10 -9 -5 -7 -10 2
-21 -3 -24 -11 -3 -9 0 -11 9 -6 8 5 11 4 6 -1 -5 -5 -14 -9 -20 -9 -14 0 -85
-102 -172 -245 -201 -334 -324 -703 -377 -1135 -20 -169 -17 -582 5 -725 26
-161 78 -373 127 -515 76 -220 264 -576 400 -760 75 -101 260 -304 354 -388
334 -298 778 -533 1213 -642 142 -36 355 -75 408 -75 l33 0 13 88 c10 58 14
180 14 372 -1 255 -3 297 -24 400 -49 249 -88 373 -166 530 -66 133 -148 242
-258 348 -194 185 -407 283 -614 282 -76 -1 -221 -24 -235 -38 -5 -5 13 -27
44 -54 116 -99 210 -154 403 -237 66 -29 176 -82 244 -119 l124 -67 -44 -12
c-80 -24 -221 -36 -344 -29 -328 16 -607 154 -870 427 -104 108 -158 177 -268
339 -90 133 -95 114 53 189 408 209 817 222 1184 39 204 -102 408 -281 525
-461 l33 -52 -6 70 c-23 252 -99 560 -181 741 -77 169 -232 358 -369 448 -66
43 -185 89 -220 84 -23 -3 -23 -3 -9 -57 22 -89 71 -175 153 -274 79 -93 204
-219 250 -249 l25 -17 -45 0 c-145 -2 -344 65 -498 166 -128 85 -269 249 -347
402 -43 86 -91 220 -120 336 -22 85 -27 133 -29 234 l-1 126 75 3 c157 7 389
-32 555 -94 298 -112 543 -346 681 -652 23 -51 46 -97 50 -100 4 -4 4 16 0 43
-15 114 -36 323 -36 368 0 36 -3 46 -12 41 -10 -6 -10 -4 -2 7 14 17 37 247
28 275 -4 14 -3 15 4 6 7 -10 12 -2 20 31 7 24 14 53 18 63 3 11 -1 9 -10 -6
-8 -14 -15 -35 -16 -47 0 -13 -5 -23 -11 -23 -5 0 -9 10 -7 22 2 16 -4 24 -22
29 -24 7 -24 7 -2 8 12 1 22 7 22 14 0 8 4 7 10 -3 8 -12 10 -9 10 12 0 17 -7
31 -20 38 -29 16 -24 30 10 30 17 0 30 -4 30 -10 0 -5 5 -10 11 -10 5 0 8 4 5
9 -4 5 -1 11 5 13 6 2 8 14 4 31 -6 21 -12 26 -26 22 -14 -5 -19 -1 -19 14 0
16 6 21 25 21 18 0 25 5 25 20 0 11 -7 20 -15 20 -8 0 -15 -7 -15 -15 0 -8 -9
-15 -20 -15 -11 0 -20 5 -20 10 0 6 -4 10 -10 10 -16 0 -12 -28 5 -38 9 -4 17
-21 18 -36 2 -22 -4 -30 -28 -40 -24 -10 -33 -10 -42 -1 -16 18 2 44 19 27 24
-24 29 -11 9 22 -35 56 -23 92 34 103 11 2 24 8 29 13 17 17 -4 25 -34 13 -30
-11 -40 -8 -40 13 0 7 9 10 23 8 16 -3 14 0 -8 10 -16 8 -31 10 -33 5 -2 -5
-13 -9 -25 -10 -12 0 -16 -3 -10 -6 10 -3 9 -9 -3 -20 -11 -11 -18 -13 -23 -5
-4 7 -12 8 -21 2 -10 -7 -11 -10 -2 -10 6 0 12 -7 12 -15 0 -7 7 -18 16 -23
14 -8 14 -11 -7 -26 -13 -9 -34 -16 -46 -16 -13 0 -23 -6 -23 -12 0 -24 -20
16 -21 42 0 22 -1 23 -8 6 -5 -12 -10 -16 -14 -9 -8 12 -47 6 -47 -7 0 -5 14
-11 31 -15 24 -5 29 -11 27 -28 -2 -14 -11 -23 -25 -25 -13 -2 -23 -7 -23 -12
0 -5 -3 -16 -7 -26 -5 -14 -2 -16 20 -12 15 3 27 1 27 -3 0 -5 -13 -9 -30 -9
-16 0 -30 -4 -30 -10 0 -5 -7 -10 -15 -10 -8 0 -15 5 -15 10 0 6 -10 11 -22
11 -15 1 -10 4 12 8 l35 7 -42 5 c-39 4 -42 3 -37 -16 9 -30 24 -45 44 -45 11
0 17 -6 16 -17 -4 -23 -24 -29 -32 -9 -3 9 -11 13 -17 9 -6 -3 -7 -1 -3 5 4 7
-3 14 -18 18 -16 4 -23 11 -19 20 8 21 -5 47 -19 38 -18 -11 -79 -13 -72 -3 5
8 -18 14 -40 10 -5 -1 -6 5 -3 13 4 9 1 15 -5 13 -6 -1 -13 4 -15 11 -3 8 5
12 22 12 25 0 55 20 55 36 0 5 -5 3 -12 -4 -7 -7 -27 -12 -46 -12 -31 0 -34
-2 -30 -25 6 -28 0 -30 -54 -14 -40 10 -52 29 -19 29 10 0 21 7 25 15 3 9 0
15 -9 15 -23 0 -30 41 -10 56 16 12 15 14 -9 20 -34 8 -29 28 8 32 18 2 26 0
21 -7 -3 -6 -1 -11 4 -11 6 0 11 7 11 15 0 11 -11 15 -42 15 l-43 0 0 49 c0
33 -6 55 -18 68 -9 11 -17 27 -17 36 0 9 -4 17 -9 17 -5 0 -13 9 -16 20 -3 11
-13 20 -20 20 -8 0 -12 6 -9 13 2 7 -7 26 -21 43 -14 16 -25 34 -25 41 0 6 -9
14 -19 18 -10 3 -21 15 -24 25 -4 14 -10 18 -23 13 -14 -5 -16 -3 -10 12 7 20
-28 65 -51 65 -7 0 -18 11 -23 25 -5 14 -16 25 -25 25 -8 0 -15 4 -15 10 0 12
-40 34 -47 26 -3 -3 0 -13 8 -23 12 -15 12 -16 -4 -10 -10 4 -27 7 -37 7 -10
0 -20 6 -23 14 -4 9 0 12 13 9 22 -6 36 15 21 30 -8 8 -14 9 -19 1 -12 -18
-42 -24 -62 -12 -19 12 -19 13 2 35 12 13 17 23 11 23 -6 0 -19 3 -29 7 -14 5
-16 2 -12 -15 4 -16 0 -27 -15 -37 -12 -8 -16 -15 -9 -15 8 0 20 -6 27 -14 12
-12 12 -15 -1 -20 -8 -3 -12 -2 -9 4 3 6 -4 10 -17 10 -13 0 -29 5 -35 11 -6
6 -17 8 -23 4 -9 -6 -8 -10 4 -17 31 -17 16 -25 -49 -25 -52 0 -65 3 -61 14 3
8 1 20 -6 26 -12 14 -75 10 -84 -4 -3 -5 -10 -9 -15 -9 -6 0 16 27 49 60 35
35 69 60 81 60 12 0 21 6 21 15 0 36 -41 6 -174 -127z m110 -18 c0 -12 -4 -16
-9 -11 -5 5 -16 7 -23 4 -14 -5 -19 8 -7 20 14 15 39 6 39 -13z m-56 -25 c0
-14 -4 -25 -10 -25 -5 0 -10 11 -10 25 0 14 5 25 10 25 6 0 10 -11 10 -25z
m233 5 c3 -10 -1 -24 -8 -30 -9 -7 -12 -3 -13 20 -1 34 13 41 21 10z m62 -10
c3 -5 1 -10 -4 -10 -6 0 -11 5 -11 10 0 6 2 10 4 10 3 0 8 -4 11 -10z m-326
-16 c2 -2 -10 -4 -27 -4 -18 0 -32 5 -32 10 0 9 47 4 59 -6z m107 -9 c-21 -16
-32 -13 -21 4 3 6 14 11 23 11 15 -1 15 -2 -2 -15z m54 -11 c0 -3 -6 -12 -14
-19 -17 -17 -30 -7 -15 12 12 13 29 18 29 7z m327 -9 c0 -5 4 -18 8 -27 12
-29 -9 -20 -27 11 -15 28 -15 30 1 28 10 0 18 -6 18 -12z m-483 -4 c4 -5 -3
-7 -14 -4 -23 6 -26 13 -6 13 8 0 17 -4 20 -9z m106 -31 c0 -4 10 -6 23 -6 33
3 46 -7 17 -14 -28 -7 -90 18 -90 37 0 10 5 10 25 1 14 -6 25 -14 25 -18z
m340 10 c0 -5 -5 -10 -11 -10 -5 0 -7 5 -4 10 3 6 8 10 11 10 2 0 4 -4 4 -10z
m-422 -42 c-4 -28 -19 -27 -30 1 -6 17 -3 21 13 21 15 0 20 -5 17 -22z m-95
-30 c-2 -4 -10 -5 -18 -2 -11 5 -12 10 -2 25 11 18 12 18 18 1 4 -9 5 -20 2
-24z m104 -34 c-3 -3 -12 -4 -19 -1 -8 3 -5 6 6 6 11 1 17 -2 13 -5z m418 -24
c-3 -5 -1 -10 6 -10 7 0 10 -3 6 -6 -3 -3 -16 -2 -29 2 -22 7 -22 7 -3 15 27
10 27 10 20 -1z m205 -16 c0 -8 -4 -12 -10 -9 -5 3 -10 10 -10 16 0 5 5 9 10
9 6 0 10 -7 10 -16z m-550 -4 c8 -5 11 -12 8 -15 -4 -4 -17 0 -30 9 -24 17 -5
23 22 6z m-174 -28 c-14 -14 -17 -14 -14 -2 3 17 20 31 27 24 3 -2 -3 -12 -13
-22z m74 24 c0 -3 -4 -8 -10 -11 -5 -3 -10 -1 -10 4 0 6 5 11 10 11 6 0 10 -2
10 -4z m550 -16 c0 -5 -2 -10 -4 -10 -3 0 -8 5 -11 10 -3 6 -1 10 4 10 6 0 11
-4 11 -10z m84 -15 c-4 -8 -15 -15 -25 -15 -27 0 -24 18 4 23 12 2 23 5 24 6
1 0 0 -6 -3 -14z m-594 -29 c0 -7 -50 -13 -55 -7 -2 4 10 8 26 9 16 1 29 1 29
-2z m-35 -46 c3 -5 1 -10 -4 -10 -6 0 -11 5 -11 10 0 6 2 10 4 10 3 0 8 -4 11
-10z m-68 -47 c0 -8 -6 -12 -14 -8 -8 3 -19 5 -24 5 -5 0 -9 4 -9 9 0 5 11 9
23 9 14 0 24 -6 24 -15z m103 3 c0 -3 -4 -8 -10 -11 -5 -3 -10 -1 -10 4 0 6 5
11 10 11 6 0 10 -2 10 -4z m-60 -10 c0 -2 -7 -7 -16 -10 -8 -3 -12 -2 -9 4 6
10 25 14 25 6z m-69 -39 c-10 -9 -11 -8 -5 6 3 10 9 15 12 12 3 -3 0 -11 -7
-18z m1499 -117 c0 -5 -5 -10 -11 -10 -5 0 -7 5 -4 10 3 6 8 10 11 10 2 0 4
-4 4 -10z m-86 -86 c21 -8 20 -24 -1 -24 -14 -1 -13 -4 6 -14 20 -11 21 -14 6
-19 -30 -12 -35 -8 -35 28 0 38 0 38 24 29z m66 -38 c0 -3 -7 -6 -15 -6 -9 0
-15 9 -15 21 0 18 2 19 15 5 8 -8 15 -17 15 -20z m-5 -36 c-3 -5 -15 -10 -26
-10 -11 0 -17 5 -14 10 3 6 15 10 26 10 11 0 17 -4 14 -10z m83 -43 c15 6 15
5 2 -11 -8 -11 -16 -14 -18 -7 -2 6 -8 9 -13 5 -11 -6 -12 9 -2 20 4 4 9 3 11
-3 2 -5 11 -7 20 -4z m-3 -187 c3 -5 -1 -10 -9 -10 -9 0 -16 5 -16 10 0 6 4
10 9 10 6 0 13 -4 16 -10z m-98 -36 c-3 -3 -12 -4 -19 -1 -8 3 -5 6 6 6 11 1
17 -2 13 -5z m92 -10 c10 -9 -45 -3 -59 6 -11 7 -5 8 20 4 19 -4 37 -8 39 -10z
m-59 -25 c0 -6 -4 -7 -10 -4 -5 3 -10 11 -10 16 0 6 5 7 10 4 6 -3 10 -11 10
-16z m39 -40 c-22 -14 -33 -10 -19 6 7 8 17 12 22 9 6 -4 5 -10 -3 -15z"/>
<path d="M1065 4879 c-16 -5 -39 -6 -52 -3 -27 7 -32 -18 -8 -38 9 -7 23 -19
31 -27 12 -11 18 -11 23 -2 8 12 28 19 66 20 12 1 16 4 9 9 -5 4 -17 16 -25
28 -11 17 -19 19 -44 13z m0 -30 c11 -16 2 -17 -25 -2 -24 12 -24 13 -3 13 12
0 25 -5 28 -11z"/>
<path d="M3882 4430 c-31 -29 -37 -63 -17 -94 33 -51 107 -47 130 6 32 77 -54
143 -113 88z"/>
<path d="M4644 4378 c-114 -57 -124 -195 -20 -272 39 -29 133 -29 172 0 72 53
91 128 52 204 -44 85 -120 110 -204 68z"/>
<path d="M2450 4359 c0 -5 5 -7 10 -4 6 3 10 8 10 11 0 2 -4 4 -10 4 -5 0 -10
-5 -10 -11z"/>
<path d="M2410 4330 c0 -5 6 -10 14 -10 8 0 18 5 21 10 3 6 -3 10 -14 10 -12
0 -21 -4 -21 -10z"/>
<path d="M2191 4284 c0 -11 3 -14 6 -6 3 7 2 16 -1 19 -3 4 -6 -2 -5 -13z"/>
<path d="M2411 4279 c-1 -10 9 -19 24 -21 13 -3 22 -1 19 3 -3 5 -11 9 -19 9
-7 0 -16 6 -18 13 -4 7 -6 6 -6 -4z"/>
<path d="M2504 4235 c-10 -20 -26 -35 -36 -35 -20 0 -24 -15 -6 -26 7 -4 8 -3
4 4 -4 7 -2 12 3 12 15 0 14 -16 -5 -48 l-16 -27 21 25 c12 14 24 36 28 50 3
14 12 31 20 38 11 12 19 42 10 42 -2 0 -12 -16 -23 -35z"/>
<path d="M2160 4245 c-10 -13 -9 -15 11 -15 17 0 20 3 10 9 -11 7 -11 9 0 14
8 3 9 6 3 6 -6 1 -17 -6 -24 -14z"/>
<path d="M1835 4210 c-3 -5 -1 -10 4 -10 6 0 11 5 11 10 0 6 -2 10 -4 10 -3 0
-8 -4 -11 -10z"/>
<path d="M1870 4212 c0 -8 43 -32 55 -32 3 0 -4 9 -15 20 -21 21 -40 26 -40
12z"/>
<path d="M1795 4190 c-7 -12 27 -22 37 -12 6 6 1 12 -11 15 -12 3 -23 2 -26
-3z"/>
<path d="M1970 4168 c0 -22 17 -41 29 -34 16 10 14 20 -9 34 -16 10 -20 10
-20 0z"/>
<path d="M2905 4133 c-73 -87 -118 -155 -164 -248 -101 -203 -131 -341 -138
-624 -3 -127 -2 -201 4 -198 5 3 22 37 38 74 15 37 77 167 136 288 146 299
189 451 175 634 -8 111 -14 118 -51 74z"/>
<path d="M2008 4094 c22 -15 42 -12 42 7 0 5 -15 9 -32 9 -32 0 -32 0 -10 -16z"/>
<path d="M3216 3900 c-38 -123 -118 -275 -238 -454 -111 -166 -202 -340 -242
-461 -14 -44 -38 -138 -53 -210 -26 -124 -27 -144 -27 -415 -1 -309 7 -395 64
-685 36 -180 140 -575 205 -776 42 -127 107 -289 117 -289 2 0 -3 44 -10 98
-9 58 -15 185 -15 317 -1 237 8 300 68 511 202 696 811 1160 1530 1165 86 0
104 3 83 11 -26 9 -40 38 -18 38 6 0 10 -7 10 -15 0 -8 9 -15 20 -15 24 0 28
35 4 44 -12 5 -14 10 -5 20 6 7 7 17 3 22 -4 4 1 3 10 -4 14 -11 16 -10 11 8
-4 16 -2 19 11 14 23 -9 20 5 -6 26 -21 16 -23 17 -36 1 -13 -15 -13 -15 -8 1
2 9 -2 19 -10 22 -9 3 -12 10 -9 16 8 13 55 13 55 0 0 -5 6 -10 13 -10 16 1
-32 40 -49 40 -8 0 -14 7 -14 15 0 9 6 12 17 8 13 -5 15 -2 10 11 -4 10 -7 20
-7 22 0 3 -4 3 -9 -1 -5 -3 -12 -1 -16 5 -3 5 -18 10 -33 10 -23 1 -25 2 -9
11 22 13 13 29 -17 29 -13 0 -29 7 -36 15 -10 12 -10 15 3 15 9 0 19 -5 22
-10 4 -6 11 -8 16 -4 5 3 7 9 4 14 -3 4 5 10 18 14 37 10 47 7 40 -11 -6 -17
-6 -17 10 -1 9 9 17 19 17 22 0 2 -25 3 -56 0 -37 -3 -53 -1 -49 6 6 10 -20 7
-62 -6 -7 -2 -13 1 -13 7 0 7 -15 8 -41 4 -29 -5 -40 -4 -35 4 4 6 15 11 24
11 14 0 15 2 3 9 -12 8 -9 11 12 16 28 7 61 -10 51 -26 -8 -14 14 -11 47 7 23
11 34 12 44 4 9 -7 15 -7 19 -1 4 6 -9 13 -29 17 -31 5 -35 10 -35 36 0 28 2
30 34 26 19 -2 32 0 29 5 -3 5 -26 7 -51 6 -29 -2 -47 1 -50 9 -2 7 -12 12
-23 12 -25 0 -24 11 6 46 14 16 25 32 25 35 0 13 -34 20 -74 16 -23 -2 -31 -2
-18 0 25 5 30 23 7 23 -8 0 -15 5 -15 10 0 6 -6 10 -14 10 -18 0 -29 27 -13
34 9 3 8 7 -2 15 -11 7 -20 4 -33 -11 -10 -12 -21 -18 -25 -14 -4 4 -1 11 6
15 8 5 11 17 7 28 -8 26 4 60 14 42 5 -7 16 -9 26 -5 17 7 17 9 -6 26 -17 13
-28 16 -37 8 -13 -11 -53 -2 -53 12 0 5 9 18 21 29 23 21 18 41 -9 40 -11 0
-12 -3 -4 -6 21 -8 13 -23 -13 -23 -18 0 -23 4 -19 15 5 11 -1 15 -17 15 -19
0 -21 -2 -9 -10 24 -15 2 -24 -25 -10 -21 11 -34 11 -77 0 l-52 -13 -57 59
c-72 73 -96 94 -109 94 -5 0 -13 15 -18 33 -7 26 -16 35 -50 47 -23 8 -41 19
-39 25 6 15 -116 74 -125 61 -5 -7 -11 -8 -15 -1 -11 14 -53 18 -53 5 0 -6 -4
-8 -10 -5 -5 3 -10 -2 -10 -11 0 -15 -2 -15 -17 2 -20 22 -53 21 -53 -2 0 -12
-3 -12 -14 -2 -10 9 -11 17 -4 26 6 7 8 16 4 19 -4 4 -11 1 -16 -7 -6 -8 -10
-11 -10 -7 0 4 -9 3 -21 -3 -16 -9 -18 -14 -8 -26 13 -16 -3 -44 -26 -44 -8 0
-16 -6 -18 -12 -4 -10 -6 -10 -6 0 -1 8 8 16 19 19 22 6 27 38 8 46 -10 4 -10
6 0 6 16 1 15 19 -2 37 -11 11 -16 11 -19 1 -4 -9 -8 -8 -16 3 -15 21 -14 28
7 32 10 3 5 6 -14 9 -28 5 -31 2 -31 -18 0 -12 3 -20 8 -17 8 4 13 -10 7 -18
-1 -2 4 -13 10 -25 8 -13 8 -24 3 -28 -11 -6 -34 29 -25 38 3 3 -4 3 -16 0
-20 -5 -21 -4 -11 15 15 28 14 31 -11 42 -13 6 -30 15 -39 22 -13 9 -22 7 -42
-8 -26 -19 -37 -54 -17 -54 6 0 10 9 10 21 0 27 24 19 28 -9 2 -12 0 -22 -5
-23 -4 0 -23 -2 -40 -5 -25 -3 -33 0 -33 11 0 8 4 15 8 15 4 0 8 16 9 35 1 19
0 35 -1 35 -1 0 -15 -41 -30 -90z m1031 -346 c-3 -3 -12 -4 -19 -1 -8 3 -5 6
6 6 11 1 17 -2 13 -5z m110 -100 c-3 -3 -12 -4 -19 -1 -8 3 -5 6 6 6 11 1 17
-2 13 -5z m-20 -70 c-3 -3 -12 -4 -19 -1 -8 3 -5 6 6 6 11 1 17 -2 13 -5z
m-1097 -14 c-8 -5 -19 -10 -25 -10 -5 0 -3 5 5 10 8 5 20 10 25 10 6 0 3 -5
-5 -10z m1180 -4 c0 -3 -4 -8 -10 -11 -5 -3 -10 -1 -10 4 0 6 5 11 10 11 6 0
10 -2 10 -4z m120 -60 c0 -11 -19 -15 -25 -6 -3 5 1 10 9 10 9 0 16 -2 16 -4z
m-48 -38 c-7 -7 -12 -8 -12 -2 0 6 3 14 7 17 3 4 9 5 12 2 2 -3 -1 -11 -7 -17z
m-33 -25 c-13 -15 -12 -15 9 -4 13 7 22 8 22 2 0 -17 -20 -23 -48 -16 -26 6
-26 7 -8 21 27 19 42 18 25 -3z m24 -40 c-7 -2 -13 -16 -13 -29 0 -14 -4 -22
-10 -19 -5 3 -10 17 -10 31 0 18 5 24 23 23 12 0 16 -3 10 -6z m87 -33 c0 -5
-11 -10 -25 -10 -14 0 -25 5 -25 10 0 6 11 10 25 10 14 0 25 -4 25 -10z m10
-30 c8 -5 12 -12 9 -15 -8 -8 -39 5 -39 16 0 11 11 11 30 -1z m-151 -40 c16
-9 -7 -15 -99 -25 -127 -15 -302 -70 -469 -147 -187 -86 -398 -256 -535 -432
-81 -105 -163 -227 -187 -279 -22 -50 -23 -38 -5 73 43 260 196 499 416 647
197 133 415 187 710 177 85 -3 161 -9 169 -14z m65 -31 c-3 -5 -14 -9 -25 -9
-10 0 -19 -4 -19 -10 0 -5 23 -10 50 -10 28 0 50 -4 50 -10 0 -5 -13 -10 -29
-10 -20 0 -30 -6 -34 -20 -3 -11 -11 -20 -19 -20 -11 0 -11 2 0 9 11 6 8 13
-12 28 -36 29 -31 59 11 60 18 1 30 -3 27 -8z m89 -69 c-3 -11 -7 -20 -9 -20
-2 0 -4 9 -4 20 0 11 4 20 9 20 5 0 7 -9 4 -20z m-140 -7 c-7 -2 -19 -2 -25 0
-7 3 -2 5 12 5 14 0 19 -2 13 -5z m107 -13 c0 -5 -6 -10 -14 -10 -8 0 -18 5
-21 10 -3 6 3 10 14 10 12 0 21 -4 21 -10z m-95 -10 c4 -6 -5 -10 -19 -10 -14
0 -26 5 -26 10 0 6 9 10 19 10 11 0 23 -4 26 -10z m179 -39 c18 -15 21 -8 6
19 -8 15 -6 17 9 13 13 -3 17 -11 13 -25 -7 -27 -32 -35 -47 -14 -8 11 -15 13
-20 7 -9 -16 -25 -13 -25 4 0 8 7 15 15 15 8 0 14 3 14 8 -3 20 3 25 11 7 4
-12 15 -27 24 -34z m-41 -28 c-7 -2 -19 -2 -25 0 -7 3 -2 5 12 5 14 0 19 -2
13 -5z m-83 -17 c0 -3 -4 -8 -10 -11 -5 -3 -10 -1 -10 4 0 6 5 11 10 11 6 0
10 -2 10 -4z m170 -28 c0 -6 -6 -5 -15 2 -8 7 -15 14 -15 16 0 2 7 1 15 -2 8
-4 15 -11 15 -16z m-25 -58 c3 -5 2 -10 -4 -10 -5 0 -13 5 -16 10 -3 6 -2 10
4 10 5 0 13 -4 16 -10z m-89 -27 c-10 -10 -19 5 -10 18 6 11 8 11 12 0 2 -7 1
-15 -2 -18z m-6 -43 c0 -5 -4 -10 -9 -10 -6 0 -13 5 -16 10 -3 6 1 10 9 10 9
0 16 -4 16 -10z"/>
<path d="M4045 3905 c-80 -79 46 -197 129 -120 37 34 37 95 0 124 -38 30 -98
28 -129 -4z"/>
<path d="M3630 3910 c-9 -6 -10 -10 -3 -10 6 0 15 5 18 10 8 12 4 12 -15 0z"/>
<path d="M4996 3899 c-32 -25 -35 -70 -6 -99 41 -41 110 -10 110 50 0 34 -30
70 -59 70 -10 0 -30 -9 -45 -21z"/>
<path d="M4366 3553 c-11 -11 -6 -23 9 -23 8 0 15 4 15 9 0 13 -16 22 -24 14z"/>
<path d="M4498 3453 c6 -2 18 -2 25 0 6 3 1 5 -13 5 -14 0 -19 -2 -12 -5z"/>
<path d="M4510 3390 c-24 -8 -23 -8 8 -9 17 -1 32 4 32 9 0 11 -5 11 -40 0z"/>
<path d="M4565 3340 c3 -5 8 -10 11 -10 2 0 4 5 4 10 0 6 -5 10 -11 10 -5 0
-7 -4 -4 -10z"/>
<path d="M4710 3250 l-25 -8 28 -1 c15 -1 27 4 27 9 0 6 -1 10 -2 9 -2 -1 -14
-5 -28 -9z"/>
<path d="M4580 3236 c0 -2 7 -6 15 -10 8 -3 15 -1 15 4 0 6 -7 10 -15 10 -8 0
-15 -2 -15 -4z"/>
<path d="M4680 3203 c0 -5 15 -9 33 -10 26 -1 28 0 12 7 -26 11 -45 12 -45 3z"/>
<path d="M4770 3199 c0 -5 5 -7 10 -4 6 3 10 8 10 11 0 2 -4 4 -10 4 -5 0 -10
-5 -10 -11z"/>
<path d="M4804 3109 c-3 -5 6 -9 20 -9 31 0 34 6 6 13 -11 3 -23 1 -26 -4z"/>
<path d="M5010 3061 c0 -5 5 -13 10 -16 6 -3 10 -2 10 4 0 5 -4 13 -10 16 -5
3 -10 2 -10 -4z"/>
<path d="M4686 3034 c-20 -20 -20 -21 3 -33 16 -9 18 -8 14 9 -3 11 0 20 6 20
6 0 11 5 11 10 0 15 -16 12 -34 -6z"/>
<path d="M4840 2999 c0 -5 5 -7 10 -4 6 3 10 8 10 11 0 2 -4 4 -10 4 -5 0 -10
-5 -10 -11z"/>
<path d="M4740 2930 c0 -5 5 -10 10 -10 6 0 10 5 10 10 0 6 -4 10 -10 10 -5 0
-10 -4 -10 -10z"/>
<path d="M4795 2921 c-3 -5 -1 -12 5 -16 5 -3 10 1 10 9 0 18 -6 21 -15 7z"/>
<path d="M4828 2913 c7 -3 16 -2 19 1 4 3 -2 6 -13 5 -11 0 -14 -3 -6 -6z"/>
<path d="M4970 2811 c0 -5 9 -11 21 -14 16 -4 18 -3 8 9 -13 16 -29 19 -29 5z"/>
<path d="M4834 2772 c-7 -10 -22 -16 -37 -14 -30 2 -39 -24 -12 -34 8 -4 15
-11 15 -18 0 -6 8 -12 18 -13 9 -1 29 -5 45 -9 32 -8 36 8 8 28 -13 9 -19 23
-17 41 4 33 -6 42 -20 19z"/>
<path d="M4920 2680 c-13 -8 -12 -10 3 -10 9 0 17 5 17 10 0 12 -1 12 -20 0z"/>
<path d="M4860 2657 c-3 -3 -28 -8 -55 -11 -180 -21 -449 -81 -575 -130 -385
-147 -687 -415 -866 -768 -51 -101 -102 -258 -140 -438 -27 -121 -26 -529 0
-675 32 -176 133 -536 159 -561 10 -10 293 72 442 127 583 218 1069 623 1384
1154 62 103 71 125 71 167 0 27 4 57 9 66 9 17 -9 182 -23 213 -4 9 -6 22 -4
29 2 9 -8 15 -24 16 -16 2 -28 -2 -28 -8 0 -6 9 -8 20 -5 24 6 26 -5 5 -23
-11 -9 -25 -10 -46 -4 -17 5 -29 11 -27 14 2 3 -14 22 -34 42 -42 43 -56 77
-37 89 13 8 -41 14 -98 12 -13 -1 -24 5 -26 15 -4 15 -5 15 -6 -1 -1 -21 -26
-49 -35 -40 -3 4 -6 -6 -6 -20 0 -16 -6 -27 -14 -27 -30 0 -76 13 -76 22 0 5
9 6 20 3 12 -4 26 0 35 9 21 20 19 29 -5 21 -15 -5 -18 -3 -14 10 5 13 2 15
-21 9 -18 -4 -26 -3 -22 3 4 6 0 19 -8 29 -13 19 -14 19 -29 -1 -13 -16 -15
-17 -10 -2 3 9 1 17 -5 17 -6 0 -11 5 -11 10 0 6 8 10 18 8 10 -2 17 3 17 12
0 8 -5 14 -12 13 -6 -1 -14 4 -17 12 -3 9 0 12 10 8 9 -3 14 2 14 17 0 13 -4
19 -12 14 -8 -5 -9 0 -6 14 4 12 2 22 -4 22 -5 0 -7 4 -3 10 4 6 15 6 30 0 16
-6 25 -6 25 0 0 6 -7 10 -15 10 -8 0 -15 5 -15 10 0 6 -8 10 -17 8 -10 -2 -17
3 -15 10 1 6 -4 12 -11 12 -7 0 -19 -6 -26 -12 -11 -10 -13 -10 -7 0 5 8 0 12
-16 13 -15 0 -18 3 -8 6 8 3 22 11 30 18 8 6 42 27 74 45 51 28 58 31 53 14
-5 -15 -3 -15 9 4 17 22 58 30 69 12 3 -5 11 -10 16 -10 15 0 -10 40 -29 47
-35 12 -41 23 -31 51 9 23 7 30 -12 45 -18 14 -20 20 -10 27 8 4 10 13 6 20
-6 10 0 12 27 7 28 -4 35 -2 35 11 0 10 -5 20 -11 24 -7 5 -4 8 7 8 23 0 22
13 -4 36 -16 14 -23 16 -26 6 -5 -13 -23 -7 -23 9 0 6 5 7 10 4 6 -3 10 4 10
17 0 16 3 19 9 10 13 -21 65 -45 69 -33 2 6 10 11 18 11 28 0 4 18 -33 25 -26
5 -33 9 -23 15 8 5 12 12 8 15 -8 8 -72 18 -78 12z m-23 -43 c-3 -3 -12 -4
-19 -1 -8 3 -5 6 6 6 11 1 17 -2 13 -5z m6 -29 c-3 -9 -8 -14 -10 -11 -3 3 -2
9 2 15 9 16 15 13 8 -4z m-27 -10 c-3 -8 0 -15 6 -15 6 0 9 -2 6 -5 -3 -3 -13
-3 -22 1 -13 5 -14 9 -5 20 15 18 23 18 15 -1z m60 -36 c10 -17 -13 -36 -27
-22 -12 12 -4 33 11 33 5 0 12 -5 16 -11z m-41 -87 c-6 -7 -34 11 -29 19 3 5
11 3 19 -4 7 -6 12 -13 10 -15z m-145 -276 c0 -3 -4 -8 -10 -11 -5 -3 -10 -1
-10 4 0 6 5 11 10 11 6 0 10 -2 10 -4z m-50 -16 c-20 -13 -33 -13 -25 0 3 6
14 10 23 10 15 0 15 -2 2 -10z m94 -11 c-3 -5 -10 -7 -15 -4 -5 4 -9 1 -9 -6
0 -7 -3 -9 -6 -6 -9 9 16 38 27 31 5 -3 7 -10 3 -15z m276 -199 c0 -5 7 -10
16 -10 14 0 14 -3 4 -15 -19 -23 -40 -18 -40 10 0 14 5 25 10 25 6 0 10 -4 10
-10z m-193 -16 c-3 -3 -12 -4 -19 -1 -8 3 -5 6 6 6 11 1 17 -2 13 -5z m7 -33
c3 -4 19 -11 36 -15 18 -3 29 -10 25 -16 -3 -5 -1 -10 5 -10 6 0 8 -5 5 -10
-5 -8 -11 -7 -21 1 -7 6 -11 16 -8 21 4 6 -2 8 -15 3 -12 -4 -21 -2 -21 4 0 6
-9 11 -21 11 -11 0 -17 5 -14 10 8 12 22 13 29 1z m146 -1 c0 -5 -10 -10 -22
-9 -22 0 -22 1 -3 9 11 5 21 9 23 9 1 1 2 -3 2 -9z m95 -1 c-3 -4 4 -13 16
-19 28 -16 21 -20 -20 -12 -40 9 -52 40 -15 40 13 0 21 -4 19 -9z m-345 -53
c-4 -4 -16 -4 -26 2 -16 9 -14 10 8 9 15 -1 23 -6 18 -11z m347 -2 c-3 -3 -12
-4 -19 -1 -8 3 -5 6 6 6 11 1 17 -2 13 -5z m-138 -16 c-4 -29 2 -38 26 -38 15
0 25 -6 25 -14 0 -13 -4 -13 -27 0 -16 7 -34 14 -41 14 -10 0 -10 5 -2 21 11
20 11 20 -14 4 -27 -18 -36 -9 -14 13 16 16 49 15 47 0z m110 -21 c-2 -1 -11
-8 -20 -15 -13 -9 -16 -9 -16 3 0 8 9 15 20 15 11 0 18 -1 16 -3z m214 -32
c-3 -9 -8 -14 -10 -11 -3 3 -2 9 2 15 9 16 15 13 8 -4z m-213 -29 c0 -8 6 -16
13 -19 6 -2 0 -4 -14 -3 -24 1 -28 8 -20 34 3 9 21 -1 21 -12z m50 -26 c0 -5
-2 -10 -4 -10 -3 0 -8 5 -11 10 -3 6 -1 10 4 10 6 0 11 -4 11 -10z"/>
<path d="M4880 2461 c0 -11 4 -22 9 -25 5 -3 8 5 7 19 -1 29 -16 34 -16 6z"/>
<path d="M4956 2431 c-8 -13 11 -18 47 -13 21 3 25 7 16 13 -18 11 -56 11 -63
0z"/>
<path d="M4900 2406 c0 -8 7 -17 16 -20 23 -9 34 -7 34 5 0 6 -7 9 -15 5 -9
-3 -15 0 -15 9 0 8 -4 15 -10 15 -5 0 -10 -6 -10 -14z"/>
<path d="M4885 2280 c-3 -6 1 -7 9 -4 18 7 21 14 7 14 -6 0 -13 -4 -16 -10z"/>
<path d="M4760 2225 c0 -7 5 -17 12 -21 6 -4 8 -3 4 4 -3 5 -1 12 6 14 8 3 6
7 -5 11 -11 4 -17 1 -17 -8z"/>
<path d="M4814 2068 c2 -37 5 -42 24 -41 44 2 45 2 33 17 -6 7 -9 21 -5 30 3
9 1 16 -5 16 -6 0 -11 -5 -11 -12 0 -6 -3 -8 -7 -4 -5 4 -8 13 -8 19 0 5 -5
12 -12 14 -7 3 -10 -10 -9 -39z"/>
<path d="M4895 2040 c-3 -6 1 -7 9 -4 18 7 21 14 7 14 -6 0 -13 -4 -16 -10z"/>
<path d="M5220 2041 c0 -5 5 -13 10 -16 6 -3 10 -2 10 4 0 5 -4 13 -10 16 -5
3 -10 2 -10 -4z"/>
<path d="M4930 2022 c0 -16 18 -24 25 -12 5 7 11 5 19 -5 14 -19 50 -17 38 2
-10 15 -82 29 -82 15z"/>
<path d="M4840 1999 c0 -18 6 -24 23 -25 20 -1 23 2 19 22 -2 13 -8 21 -13 18
-5 -3 -7 -11 -3 -17 3 -7 -2 -3 -10 7 -16 19 -16 19 -16 -5z"/>
<path d="M5415 2009 c-4 -6 -5 -12 -2 -15 2 -3 7 2 10 11 7 17 1 20 -8 4z"/>
<path d="M4892 1988 c5 -33 17 -48 32 -42 12 5 11 11 -2 35 -20 35 -34 38 -30
7z"/>
<path d="M5180 1936 c0 -2 7 -7 16 -10 8 -3 12 -2 9 4 -6 10 -25 14 -25 6z"/>
<path d="M5138 1923 c6 -2 18 -2 25 0 6 3 1 5 -13 5 -14 0 -19 -2 -12 -5z"/>
<path d="M5220 1900 c0 -5 5 -10 10 -10 6 0 10 5 10 10 0 6 -4 10 -10 10 -5 0
-10 -4 -10 -10z"/>
<path d="M5185 1890 c3 -5 11 -10 16 -10 6 0 7 5 4 10 -3 6 -11 10 -16 10 -6
0 -7 -4 -4 -10z"/>
</g>
</svg>
