<?xml version="1.0" standalone="no"?>
<!DOCTYPE svg PUBLIC "-//W3C//DTD SVG 20010904//EN"
 "http://www.w3.org/TR/2001/REC-SVG-20010904/DTD/svg10.dtd">
<svg version="1.0" xmlns="http://www.w3.org/2000/svg"
 width="70.000000pt" height="70.000000pt" viewBox="0 0 70.000000 70.000000"
 preserveAspectRatio="xMidYMid meet">
<metadata>
Created by potrace 1.14, written by Peter Selinger 2001-2017
</metadata>
<g transform="translate(0.000000,70.000000) scale(0.100000,-0.100000)"
fill="#000000" stroke="none">
<path d="M0 350 l0 -350 350 0 350 0 0 328 c0 180 -3 337 -6 350 l-6 22 -344
0 -344 0 0 -350z m658 -4 c2 -233 -1 -301 -10 -308 -15 -9 -578 -11 -602 -2
-14 5 -16 42 -16 303 0 164 3 301 7 304 4 4 144 6 312 5 l306 -3 3 -299z"/>
<path d="M320 591 c-81 -26 -141 -84 -162 -153 -15 -54 -15 -140 1 -196 14
-51 73 -120 118 -139 39 -16 187 -17 232 -2 l31 11 0 114 0 114 -40 0 -40 0 0
-71 c0 -98 -8 -109 -75 -109 -46 0 -59 4 -90 31 -43 38 -59 92 -52 174 10 127
52 161 188 152 72 -5 88 -3 93 10 11 28 6 40 -21 52 -34 16 -150 23 -183 12z"/>
</g>
</svg>
