<?xml version="1.0" standalone="no"?>
<!DOCTYPE svg PUBLIC "-//W3C//DTD SVG 20010904//EN"
 "http://www.w3.org/TR/2001/REC-SVG-20010904/DTD/svg10.dtd">
<svg version="1.0" xmlns="http://www.w3.org/2000/svg"
 width="150.000000pt" height="150.000000pt" viewBox="0 0 150.000000 150.000000"
 preserveAspectRatio="xMidYMid meet">
<metadata>
Created by potrace 1.14, written by Peter Selinger 2001-2017
</metadata>
<g transform="translate(0.000000,150.000000) scale(0.100000,-0.100000)"
fill="#000000" stroke="none">
<path d="M470 1140 c0 -5 5 -10 10 -10 6 0 10 5 10 10 0 6 -4 10 -10 10 -5 0
-10 -4 -10 -10z"/>
<path d="M568 1009 c-21 -11 -38 -26 -38 -34 0 -10 -15 -14 -59 -14 -74 1 -91
-8 -169 -88 -62 -64 -63 -65 -45 -85 18 -20 18 -20 23 8 4 22 13 31 38 39 24
7 32 15 32 32 0 13 5 23 10 23 6 0 10 -7 10 -15 0 -23 37 -18 43 7 l6 21 25
-24 c16 -15 26 -35 26 -54 1 -27 2 -28 14 -12 22 29 38 21 31 -15 -8 -36 -52
-79 -72 -71 -7 3 -13 0 -13 -6 0 -6 7 -11 15 -11 18 0 33 -52 17 -58 -24 -8
-11 -22 15 -16 19 5 30 2 39 -11 12 -17 14 -16 25 9 14 30 24 33 38 9 13 -25
41 1 41 38 0 39 18 81 33 76 14 -4 19 -77 6 -93 -5 -6 -7 -19 -3 -28 5 -13 15
-15 58 -10 28 4 58 13 67 20 20 18 33 18 25 -1 -3 -8 2 -18 11 -23 21 -12 6
-35 -18 -29 -11 3 -17 1 -14 -3 9 -14 -7 -41 -21 -36 -25 10 -24 -11 1 -24 22
-12 27 -11 38 2 6 8 20 18 30 21 14 5 16 2 11 -17 -4 -16 -1 -25 10 -29 10 -4
16 -18 16 -36 0 -16 6 -31 13 -34 10 -4 10 -7 0 -18 -18 -18 -16 -49 3 -49 9
0 24 10 35 23 15 18 18 19 19 5 0 -18 -25 -48 -41 -48 -5 0 -28 9 -51 21 -60
30 -72 9 -13 -24 36 -21 58 -26 102 -24 35 1 58 7 61 15 2 7 -5 12 -18 12 -14
0 -20 5 -16 13 3 6 9 20 12 29 3 9 18 18 32 20 33 4 42 28 10 28 -21 1 -20 3
15 34 41 36 49 61 17 51 -16 -5 -20 -2 -20 15 0 16 4 20 16 16 9 -4 23 -1 30
5 12 10 10 17 -11 45 -14 18 -25 39 -25 47 0 8 -6 17 -13 20 -8 3 -11 19 -9
46 3 34 7 40 18 30 10 -8 14 -8 14 0 0 6 7 11 15 11 20 0 41 -45 28 -62 -5 -7
-6 -29 -2 -48 l6 -35 2 32 c1 37 30 60 50 40 10 -9 14 -8 22 6 6 9 14 15 20
12 5 -4 19 -8 31 -10 35 -7 41 -21 23 -49 -10 -14 -21 -26 -26 -26 -12 0 0
-30 28 -67 13 -18 29 -32 36 -30 7 1 11 -6 9 -15 -3 -21 16 -34 30 -20 8 8 -1
24 -30 54 -44 45 -50 62 -29 75 7 4 18 20 24 35 10 22 9 29 -8 44 -10 9 -19
25 -19 35 0 24 -18 33 -36 18 -13 -10 -17 -10 -24 1 -5 9 -4 20 3 28 8 11 7
16 -5 23 -10 5 -14 17 -11 29 4 14 0 20 -11 20 -9 0 -16 -5 -16 -11 0 -8 -5
-8 -15 1 -22 18 -18 38 8 42 12 2 22 10 22 18 0 17 -52 16 -69 -1 -16 -15 -54
-10 -61 9 -3 9 -17 25 -31 35 -29 21 -45 13 -70 -35 -8 -15 -22 -28 -32 -28
-9 0 -49 25 -89 55 -60 46 -73 52 -83 40 -18 -21 -29 -18 -40 10 -10 26 -25
31 -50 15 -11 -7 -19 -4 -30 10 -15 18 -16 18 -52 -1z m52 -51 c36 -57 38 -64
18 -77 -19 -12 -21 -40 -3 -54 6 -5 4 -7 -4 -5 -8 2 -19 13 -25 24 -6 10 -12
21 -14 24 -2 3 -10 -3 -17 -14 -16 -21 -45 -15 -45 9 0 8 10 25 22 37 l21 21
-24 9 -24 9 25 19 c33 26 52 25 70 -2z m50 13 c0 -5 -7 -11 -14 -14 -10 -4
-13 -1 -9 9 6 15 23 19 23 5z m85 -31 c3 -5 -1 -10 -10 -10 -9 0 -13 5 -10 10
3 6 8 10 10 10 2 0 7 -4 10 -10z m-235 -24 c0 -25 -19 -28 -42 -7 l-22 21 32
0 c21 0 32 -5 32 -14z m474 -33 c-9 -36 -12 -39 -25 -26 -8 8 -7 17 3 32 18
29 30 26 22 -6z m-299 8 c3 -5 1 -12 -5 -16 -5 -3 -10 1 -10 9 0 18 6 21 15 7z
m410 -57 c0 -22 -30 -26 -31 -4 -1 22 6 32 19 27 7 -2 12 -12 12 -23z m-225 6
c0 -5 -7 -7 -15 -4 -8 4 -15 8 -15 10 0 2 7 4 15 4 8 0 15 -4 15 -10z m160 -4
c0 -11 -19 -15 -25 -6 -3 5 1 10 9 10 9 0 16 -2 16 -4z m-330 -67 c0 -5 -4 -9
-10 -9 -5 0 -10 7 -10 16 0 8 5 12 10 9 6 -3 10 -10 10 -16z m85 1 c-3 -5 -11
-10 -16 -10 -6 0 -7 5 -4 10 3 6 11 10 16 10 6 0 7 -4 4 -10z m195 -130 c0
-27 5 -50 10 -50 16 0 12 -27 -5 -34 -11 -4 -15 2 -16 22 0 15 -2 46 -5 70 -2
24 0 42 6 42 6 0 10 -22 10 -50z m-283 25 c8 -22 -6 -33 -17 -15 -13 20 -12
30 0 30 6 0 13 -7 17 -15z m240 -11 c2 -6 -8 -17 -22 -24 -22 -12 -28 -12 -41
2 -9 9 -13 21 -9 28 8 14 67 9 72 -6z m-78 -67 c0 -21 -1 -21 -9 -2 -12 28
-12 37 0 30 6 -3 10 -16 9 -28z m77 -13 c2 -26 19 -44 39 -44 28 0 38 -12 29
-35 -5 -12 -14 -15 -31 -11 -13 4 -32 2 -42 -4 -29 -15 -45 10 -25 39 16 22
16 22 -5 10 -35 -23 -46 3 -15 35 26 25 48 30 50 10z m24 -139 c0 -9 -6 -12
-15 -9 -8 4 -15 10 -15 15 0 5 7 9 15 9 8 0 15 -7 15 -15z"/>
<path d="M1091 956 c-22 -23 -22 -25 -4 -34 15 -9 21 -5 35 18 25 45 5 55 -31
16z"/>
<path d="M185 729 c-27 -24 -35 -39 -33 -58 5 -39 32 -33 36 7 3 25 11 38 33
50 16 10 29 20 29 25 0 17 -32 5 -65 -24z"/>
<path d="M1041 714 c0 -11 3 -14 6 -6 3 7 2 16 -1 19 -3 4 -6 -2 -5 -13z"/>
<path d="M1071 714 c0 -11 3 -14 6 -6 3 7 2 16 -1 19 -3 4 -6 -2 -5 -13z"/>
<path d="M216 626 c-27 -52 -28 -54 -11 -80 10 -14 24 -26 31 -26 18 0 18 9
-2 31 -14 15 -14 21 -1 46 19 37 29 83 19 83 -4 0 -20 -24 -36 -54z"/>
<path d="M1158 656 c-22 -17 -24 -40 -2 -32 9 3 21 6 29 6 7 0 15 9 18 20 6
24 -18 27 -45 6z"/>
<path d="M244 509 c-8 -14 11 -33 25 -25 16 10 13 36 -3 36 -8 0 -18 -5 -22
-11z"/>
<path d="M732 475 c-11 -14 -28 -25 -37 -25 -14 0 -13 -4 6 -20 l24 -20 -25
-19 c-14 -11 -43 -29 -64 -41 l-39 -21 -28 28 c-16 16 -29 33 -29 40 0 8 -17
11 -48 11 -36 -1 -67 8 -122 34 -41 20 -78 34 -82 32 -15 -10 -8 -34 10 -34
19 0 83 -30 109 -51 8 -7 40 -13 69 -13 48 0 55 -3 60 -23 6 -21 43 -53 63
-53 13 0 75 39 117 74 25 20 34 36 34 58 0 16 5 38 10 49 15 28 -5 24 -28 -6z"/>
<path d="M1126 467 c3 -8 -2 -20 -11 -27 -18 -15 -20 -41 -3 -37 7 1 21 12 31
25 15 18 17 26 7 37 -16 19 -31 20 -24 2z"/>
<path d="M605 450 c-3 -5 -1 -10 4 -10 6 0 11 5 11 10 0 6 -2 10 -4 10 -3 0
-8 -4 -11 -10z"/>
<path d="M796 453 c-12 -12 -6 -33 9 -33 8 0 15 6 15 14 0 17 -14 28 -24 19z"/>
<path d="M1056 437 c3 -19 -28 -57 -46 -57 -11 0 -13 -13 -4 -23 9 -9 54 23
54 39 0 8 7 14 15 14 8 0 15 5 15 10 0 6 -6 10 -14 10 -8 0 -16 6 -19 13 -2 6
-3 4 -1 -6z"/>
<path d="M580 406 c0 -17 14 -29 23 -20 8 8 -3 34 -14 34 -5 0 -9 -6 -9 -14z"/>
<path d="M1290 405 c0 -9 5 -15 11 -13 6 2 11 8 11 13 0 5 -5 11 -11 13 -6 2
-11 -4 -11 -13z"/>
<path d="M1063 359 c-34 -21 -40 -33 -24 -44 5 -3 17 5 25 17 l16 22 27 -26
c16 -15 39 -29 53 -33 20 -4 27 -1 38 22 15 34 -1 56 -21 28 -13 -16 -17 -17
-45 -4 -17 7 -33 19 -34 26 -2 9 -13 6 -35 -8z"/>
<path d="M1245 360 c-3 -5 1 -10 10 -10 9 0 13 5 10 10 -3 6 -8 10 -10 10 -2
0 -7 -4 -10 -10z"/>
<path d="M735 340 c-4 -6 -18 -15 -31 -20 -18 -7 -25 -20 -30 -50 -8 -47 -16
-55 -43 -38 -15 9 -23 9 -35 -1 -26 -22 -19 -30 37 -46 48 -14 56 -14 84 0 37
19 48 32 57 68 5 23 11 27 42 27 24 0 34 4 31 13 -2 6 -19 12 -38 12 -27 0
-34 4 -34 20 0 22 -29 33 -40 15z"/>
<path d="M75 271 c-6 -11 9 -23 19 -14 9 9 7 23 -3 23 -6 0 -12 -4 -16 -9z"/>
<path d="M7 264 c-12 -13 -7 -20 13 -20 11 0 19 5 17 10 -4 13 -21 18 -30 10z"/>
<path d="M145 250 c3 -5 18 -10 33 -10 21 0 24 2 12 10 -20 13 -53 13 -45 0z"/>
<path d="M382 246 c10 -12 78 -25 78 -15 0 5 -11 9 -24 9 -13 0 -33 3 -43 7
-10 3 -15 3 -11 -1z"/>
<path d="M100 229 c0 -6 -11 -25 -26 -44 -30 -39 -20 -52 18 -22 25 21 32 36
29 65 -1 15 -21 16 -21 1z"/>
<path d="M255 210 c3 -5 10 -10 16 -10 5 0 9 5 9 10 0 6 -7 10 -16 10 -8 0
-12 -4 -9 -10z"/>
<path d="M506 211 c-4 -6 8 -18 26 -27 l32 -17 -15 24 c-18 27 -35 34 -43 20z"/>
<path d="M140 155 c-14 -27 -5 -49 10 -25 9 14 14 50 7 50 -2 0 -10 -11 -17
-25z"/>
<path d="M1126 165 c-25 -19 -14 -30 13 -13 17 10 25 10 41 0 11 -6 27 -12 35
-12 9 0 27 -7 41 -16 13 -9 27 -15 29 -12 7 7 -48 44 -75 51 -14 3 -34 8 -45
11 -11 3 -29 -1 -39 -9z"/>
<path d="M759 156 c15 -17 63 -28 58 -12 -2 6 -14 11 -26 10 -11 0 -21 3 -21
8 0 4 -5 8 -11 8 -8 0 -8 -4 0 -14z"/>
<path d="M585 150 c3 -5 11 -10 16 -10 6 0 7 5 4 10 -3 6 -11 10 -16 10 -6 0
-7 -4 -4 -10z"/>
<path d="M1060 145 c0 -9 6 -12 15 -9 8 4 15 10 15 15 0 5 -7 9 -15 9 -8 0
-15 -7 -15 -15z"/>
<path d="M620 131 c0 -11 26 -22 34 -14 3 3 3 10 0 14 -7 12 -34 11 -34 0z"/>
<path d="M859 126 c19 -23 102 -78 109 -72 10 10 -22 38 -72 63 -36 18 -47 21
-37 9z"/>
<path d="M0 112 c0 -24 63 -54 95 -46 37 9 30 22 -17 34 -24 6 -51 15 -60 20
-14 8 -18 6 -18 -8z"/>
<path d="M678 123 c7 -3 16 -2 19 1 4 3 -2 6 -13 5 -11 0 -14 -3 -6 -6z"/>
<path d="M1065 105 c41 -33 123 -66 131 -54 6 10 -2 23 -14 25 -4 0 -20 6 -37
13 -16 7 -48 19 -70 26 l-39 14 29 -24z"/>
<path d="M1017 103 c-10 -9 -9 -23 2 -23 5 0 11 7 15 15 5 15 -5 20 -17 8z"/>
<path d="M440 80 c52 -22 76 -24 85 -9 11 16 2 19 -66 24 l-64 4 45 -19z"/>
<path d="M1320 86 c0 -18 -31 -21 -47 -5 -6 6 -21 9 -34 7 l-24 -3 25 -17 c39
-25 67 -30 81 -15 8 8 22 12 32 9 14 -4 18 0 15 14 -4 24 -48 32 -48 10z"/>
<path d="M320 79 c0 -5 5 -7 10 -4 6 3 10 8 10 11 0 2 -4 4 -10 4 -5 0 -10 -5
-10 -11z"/>
<path d="M565 69 c-4 -6 -5 -12 -2 -15 2 -3 7 2 10 11 7 17 1 20 -8 4z"/>
<path d="M805 20 c-3 -5 -1 -10 4 -10 6 0 11 5 11 10 0 6 -2 10 -4 10 -3 0 -8
-4 -11 -10z"/>
</g>
</svg>
